<svg xmlns="http://www.w3.org/2000/svg" version="1.1" xmlns:xlink="http://www.w3.org/1999/xlink" xmlns:svgjs="http://svgjs.dev/svgjs" width="1500" height="1500" viewBox="0 0 1500 1500"><rect width="1500" height="1500" fill="#171717"></rect><g transform="matrix(0.6666666666666666,0,0,0.6666666666666666,249.39393939393932,550.0951146527508)"><svg viewBox="0 0 396 158" data-background-color="#171717" preserveAspectRatio="xMidYMid meet" height="598" width="1500" xmlns="http://www.w3.org/2000/svg" xmlns:xlink="http://www.w3.org/1999/xlink"><g id="tight-bounds" transform="matrix(1,0,0,1,0.24000000000003752,0.22651810584959264)"><svg viewBox="0 0 395.5199999999999 157.54696378830081" height="157.54696378830081" width="395.5199999999999"><g><svg viewBox="0 0 395.52000000000004 157.54696378830084" height="157.54696378830081" width="395.5199999999999"><g><svg viewBox="0 0 395.52000000000004 157.54696378830084" height="157.54696378830084" width="395.52000000000004"><g id="textblocktransform"><svg viewBox="0 0 395.52000000000004 157.54696378830084" height="157.54696378830084" width="395.52000000000004" id="textblock"><g><svg viewBox="0 0 395.52000000000004 157.54696378830084" height="157.54696378830084" width="395.52000000000004"><g transform="matrix(1,0,0,1,0,0)"><svg width="395.52000000000004" viewBox="1.75 -35.35 89.74 35.75" height="157.54696378830084" data-palette-color="#ffffff"><path d="M9.15-12.6L9.15-12.6Q9.15-9.55 10.75-7.68 12.35-5.8 14.65-5.8L14.65-5.8Q17.15-5.8 18.7-7.75 20.25-9.7 20.25-12.95L20.25-12.95Q20.25-16.1 18.57-17.85 16.9-19.6 14.6-19.6 12.3-19.6 10.73-17.75 9.15-15.9 9.15-12.6ZM27.55-35.35L27.55 0 20.25 0 20.25-3.95Q17.7 0.3 12.65 0.3L12.65 0.3Q7.7 0.3 4.73-3.55 1.75-7.4 1.75-12.75L1.75-12.75Q1.75-18.75 4.85-22.2 7.95-25.65 12.7-25.65L12.7-25.65Q17.65-25.65 20.25-21.45L20.25-21.45 20.25-35.35 27.55-35.35ZM40.15-7.2Q41.45-5.9 41.45-4.05 41.45-2.2 40.15-0.9 38.85 0.4 37 0.4 35.15 0.4 33.85-0.9 32.55-2.2 32.55-4.05 32.55-5.9 33.85-7.2 35.15-8.5 37-8.5 38.85-8.5 40.15-7.2ZM63.75-7.65L63.75-7.65Q63.75-3.9 61.05-1.85 58.34 0.2 53.9 0.2L53.9 0.2Q49.3 0.2 46.2-1.35L46.2-1.35 46.2-7.85Q49.65-5.45 53.5-5.45L53.5-5.45Q56.25-5.45 56.25-7.2L56.25-7.2Q56.25-7.65 56-8.05 55.75-8.45 55.15-8.8 54.55-9.15 54.05-9.38 53.55-9.6 52.59-10 51.65-10.4 51.15-10.65L51.15-10.65Q46.09-13.05 46.09-17.85L46.09-17.85Q46.09-21.55 48.92-23.6 51.75-25.65 55.95-25.65L55.95-25.65Q59.84-25.65 62.45-24.6L62.45-24.6 62.45-18.35Q59.8-19.9 56.25-19.9L56.25-19.9Q54.95-19.9 54.25-19.38 53.55-18.85 53.55-18.05L53.55-18.05Q53.55-17.6 53.8-17.2 54.05-16.8 54.62-16.45 55.2-16.1 55.72-15.83 56.25-15.55 57.17-15.15 58.09-14.75 58.65-14.45L58.65-14.45Q60.95-13.25 62.34-11.68 63.75-10.1 63.75-7.65ZM91.49-16.15L91.49 0 84.19 0 84.19-15Q84.19-17.2 83.09-18.45 81.99-19.7 80.24-19.7L80.24-19.7Q79.49-19.7 78.82-19.48 78.14-19.25 77.34-18.68 76.54-18.1 76.04-16.73 75.54-15.35 75.54-13.4L75.54-13.4 75.54 0 68.24 0 68.24-35.35 75.54-35.35 75.54-21.05Q77.49-25.6 83.14-25.6L83.14-25.6Q86.84-25.6 89.17-23.25 91.49-20.9 91.49-16.15L91.49-16.15Z" opacity="1" transform="matrix(1,0,0,1,0,0)" fill="#ffffff" class="wordmark-text-0" data-fill-palette-color="primary" id="text-0"></path></svg></g></svg></g></svg></g></svg></g><g></g></svg></g><defs></defs></svg><rect width="395.5199999999999" height="157.54696378830081" fill="none" stroke="none" visibility="hidden"></rect></g></svg></g></svg>